<svg width="200" height="50" viewBox="0 0 200 50" fill="none" xmlns="http://www.w3.org/2000/svg">
  <!-- A -->
  <path d="M10 50L20 0H30L40 50H33L31 40H19L17 50H10ZM21.5 10L18.5 30H31.5L28.5 10H21.5Z" fill="white"/>
  
  <!-- D -->
  <path d="M50 0H70C83 0 90 10 90 25C90 40 83 50 70 50H50V0ZM70 42C77 42 82 36 82 25C82 14 77 8 70 8H58V42H70Z" fill="white"/>
  
  <!-- A -->
  <path d="M100 50L110 0H120L130 50H123L121 40H109L107 50H100ZM111.5 10L108.5 30H121.5L118.5 10H111.5Z" fill="white"/>
  
  <!-- M -->
  <path d="M140 50V0H150L160 30L170 0H180V50H172V15L162 40H158L148 15V50H140Z" fill="white"/>
</svg>
