<svg width="16" height="16" viewBox="0 0 846.66 846.66" fill="none" xmlns="http://www.w3.org/2000/svg">
  <path d="M423.33 279.52c54.2,0 98.47,44.26 98.47,98.47v45.71c0,11.4 -9.25,20.65 -20.65,20.65h-155.64c-11.4,0 -20.65,-9.25 -20.65,-20.65v-45.71c0,-54.2 44.27,-98.47 98.47,-98.47zm-182.05 256.57c-27.16,0 -27.16,-41.3 0,-41.3h364.1c27.16,0 27.16,41.3 0,41.3h-364.1zm0 177.71c-27.16,0 -27.16,-41.29 0,-41.29h364.1c27.16,0 27.16,41.29 0,41.29h-364.1zm0 -88.85c-27.16,0 -27.16,-41.3 0,-41.3h364.1c27.16,0 27.16,41.3 0,41.3h-364.1zm-121.37 -614.55h465.97c5.7,0 10.86,2.31 14.6,6.05l140.87 140.87c4.03,4.03 6.05,9.32 6.05,14.6v643.69c0,11.4 -9.25,20.65 -20.65,20.65h-606.84c-11.4,0 -20.65,-9.25 -20.65,-20.65v-784.56c0,-11.4 9.25,-20.65 20.65,-20.65zm457.42 41.29h-436.78v743.28h565.56v-614.5l-128.78 -128.78zm-154 57.32c45.98,0 83.25,37.28 83.25,83.26s-37.27,83.25 -83.25,83.25 -83.25,-37.28 -83.25,-83.25 37.27,-83.26 83.25,-83.26zm0 41.3c-23.18,0 -41.96,18.78 -41.96,41.96s18.78,41.96 41.96,41.96 41.96,-18.79 41.96,-41.96 -18.78,-41.96 -41.96,-41.96zm0 170.5c-31.4,0 -57.18,25.77 -57.18,57.18v25.07h114.36v-25.07c0,-31.41 -25.78,-57.18 -57.18,-57.18z" fill="white"/>
</svg>
